<svg width="32" height="28" viewBox="0 0 32 28" fill="none" xmlns="http://www.w3.org/2000/svg">
<g filter="url(#filter0_d)">
<path d="M10.6855 6.51304L8.09018 8.96522L15.2251 15.7391L28 3.62609L25.4047 1.16522L15.2251 10.8174L10.6855 6.51304Z" fill="white" fill-opacity="0.8"/>
<path d="M23.2587 17.3913C23.2587 17.6219 23.1621 17.8431 22.9901 18.0062C22.8181 18.1693 22.5848 18.2609 22.3416 18.2609H6.75124C6.50802 18.2609 6.27475 18.1693 6.10277 18.0062C5.93078 17.8431 5.83416 17.6219 5.83416 17.3913V2.6087C5.83416 2.37807 5.93078 2.1569 6.10277 1.99382C6.27475 1.83074 6.50802 1.73913 6.75124 1.73913H22.2591L23.7081 0.356522C23.2932 0.126574 22.8221 0.00365521 22.3416 0H6.75124C6.02157 0 5.32178 0.274844 4.80582 0.764069C4.28986 1.25329 4 1.91683 4 2.6087V17.3913C4 18.0832 4.28986 18.7467 4.80582 19.2359C5.32178 19.7252 6.02157 20 6.75124 20H22.3416C23.0713 20 23.7711 19.7252 24.287 19.2359C24.803 18.7467 25.0929 18.0832 25.0929 17.3913V8.84348L23.2587 10.5826V17.3913Z" fill="white" fill-opacity="0.8"/>
</g>
<defs>
<filter id="filter0_d" x="0" y="0" width="32" height="28" filterUnits="userSpaceOnUse" color-interpolation-filters="sRGB">
<feFlood flood-opacity="0" result="BackgroundImageFix"/>
<feColorMatrix in="SourceAlpha" type="matrix" values="0 0 0 0 0 0 0 0 0 0 0 0 0 0 0 0 0 0 127 0"/>
<feOffset dy="4"/>
<feGaussianBlur stdDeviation="2"/>
<feColorMatrix type="matrix" values="0 0 0 0 0 0 0 0 0 0 0 0 0 0 0 0 0 0 0.25 0"/>
<feBlend mode="normal" in2="BackgroundImageFix" result="effect1_dropShadow"/>
<feBlend mode="normal" in="SourceGraphic" in2="effect1_dropShadow" result="shape"/>
</filter>
</defs>
</svg>
